<svg width="512" height="512" viewBox="0 0 512 512" xmlns="http://www.w3.org/2000/svg">
  <title>
    default-avatar-large
  </title>
  <g fill="none" fill-rule="evenodd">
    <path fill="#E9E9E9" d="M.06 512H512V0H.06"/>
    <path d="M178.5 166h155c6.9 0 12.5 5.6 12.5 12.5v155c0 6.9-5.6 12.5-12.5 12.5h-155c-6.9 0-12.5-5.6-12.5-12.5v-155c0-6.9 5.6-12.5 12.5-12.5zM326 326V186H186v140h140zm-70-110c0-11-9-20-20-20s-20 9-20 20 9 20 20 20 20-9 20-20zm30 50s0-60 30-60v100c0 5.5-4.5 10-10 10H206c-5.5 0-10-4.5-10-10v-70c20 0 30 40 30 40s10-30 30-30 30 20 30 20z" fill="#FFF"/>
  </g>
</svg>
